<svg width="62" height="18" viewBox="0 0 62 18" fill="none" xmlns="http://www.w3.org/2000/svg">
<g clip-path="url(#clip0_3241_21854)">
<path d="M44.6971 0.291992H40.6221V11.8377C40.6221 15.0744 43.3276 17.7084 46.6521 17.7084H48.5375V13.741H46.6521C45.574 13.741 44.6971 12.8873 44.6971 11.8377V8.22682H48.5375V4.25941H44.6971V0.291992Z" fill="white"/>
<path d="M30.4473 10.1305V17.7088H34.5223V10.1305C34.5223 9.08093 35.3992 8.22718 36.4773 8.22718H38.3627V4.25977H36.4773C33.1515 4.25977 30.4473 6.89383 30.4473 10.1305Z" fill="white"/>
<path d="M61.2049 0.291992H57.1299V17.7084H61.2049V0.291992Z" fill="white"/>
<path d="M54.8719 6.23145H50.7969V17.7068H54.8719V6.23145Z" fill="white"/>
<path d="M53.4256 5.23669C54.8085 4.91893 55.6649 3.5699 55.3385 2.22356C55.0121 0.877219 53.6265 0.0433926 52.2437 0.361158C50.8608 0.678923 50.0043 2.02795 50.3307 3.37429C50.6571 4.72063 52.0427 5.55446 53.4256 5.23669Z" fill="white"/>
<path d="M9.28677 6.24312H5.68499C2.98849 6.24312 0.794922 8.37874 0.794922 11.004V12.9475C0.794922 15.5728 2.98849 17.7084 5.68499 17.7084H13.3618V4.25941H15.6199V0.291992H9.28677V6.24312ZM4.86998 12.9475V11.004C4.86998 10.5671 5.23493 10.2105 5.68499 10.2105H9.28677V13.741H5.68499C5.23493 13.741 4.86998 13.3845 4.86998 12.9475Z" fill="white"/>
<path d="M22.1579 0.291992H18.208V4.25941H22.1579C23.236 4.25941 24.1129 5.11316 24.1129 6.16276V6.24312H20.5112C17.8147 6.24312 15.6211 8.37874 15.6211 11.004V12.9475C15.6211 15.5728 17.8147 17.7084 20.5112 17.7084H28.188V6.16276C28.188 2.92605 25.4825 0.291992 22.1579 0.291992ZM24.1129 13.741H20.5112C20.0611 13.741 19.6961 13.3845 19.6961 12.9475V11.004C19.6961 10.5671 20.0611 10.2105 20.5112 10.2105H24.1129V13.741Z" fill="white"/>
</g>
<defs>
<clipPath id="clip0_3241_21854">
<rect width="60.4101" height="17.4165" fill="white" transform="translate(0.794922 0.291992)"/>
</clipPath>
</defs>
</svg>
