<svg width="24" height="25" viewBox="0 0 24 25" fill="none" xmlns="http://www.w3.org/2000/svg">
<path opacity="0.5" fill-rule="evenodd" clip-rule="evenodd" d="M18.7183 0.007752H15.2566V3.57793H18.7183C19.6631 3.57793 20.4298 4.34462 20.4298 5.28946V5.35914H17.2701C14.908 5.35914 12.9874 7.27979 12.9874 9.64183V11.3921C12.9874 13.7541 14.908 15.6747 17.2701 15.6747H24V5.28171C24 2.3698 21.6303 0 18.7183 0V0.007752ZM20.4298 12.1123H17.2701C16.8752 12.1123 16.5576 11.7948 16.5576 11.3998V9.64958C16.5576 9.25461 16.8752 8.93706 17.2701 8.93706H20.4298V12.1123ZM11.0126 13.8935V3.57793H12.9952V0.007752H7.44239V5.36689H4.2827C1.92061 5.36689 0 7.28754 0 9.64958V11.3998C0 13.7619 1.92061 15.6825 4.2827 15.6825H11.0126V13.8935ZM3.57017 11.3921V9.64183C3.57017 9.24686 3.88772 8.92936 4.2827 8.92936H7.44239V12.1046H4.2827C3.88772 12.1046 3.57017 11.7871 3.57017 11.3921ZM15.1481 21.0262C16.093 21.0262 16.8597 20.2594 16.8597 19.3146V17.6651H20.4298V19.3146C20.4298 22.2265 18.06 24.5963 15.1481 24.5963H11.0126V21.0262H15.1481Z" fill="#7D00FF"/>
</svg>
