<svg width="80" height="83" viewBox="0 0 80 83" fill="none" xmlns="http://www.w3.org/2000/svg">
<path fill-rule="evenodd" clip-rule="evenodd" d="M62.3945 0.582969H50.8553V12.4835H62.3945C65.5438 12.4835 68.0994 15.0392 68.0994 18.1887V18.4209H57.5671C49.6935 18.4209 43.2914 24.8231 43.2914 32.6966V38.5307C43.2914 46.4042 49.6935 52.8062 57.5671 52.8062H80V18.1628C80 8.45645 72.1008 0.557129 62.3945 0.557129V0.582969ZM68.0994 40.9315H57.5671C56.2505 40.9315 55.192 39.873 55.192 38.5564V32.7224C55.192 31.4058 56.2505 30.3473 57.5671 30.3473H68.0994V40.9315ZM36.7085 46.8689V12.4835H43.3173V0.582969H24.808V18.4468H14.2757C6.40202 18.4468 0 24.8489 0 32.7224V38.5566C0 46.4301 6.40202 52.8321 14.2757 52.8321H36.7085V46.8689ZM11.9006 38.5307V32.6966C11.9006 31.38 12.9591 30.3217 14.2757 30.3217H24.808V40.9057H14.2757C12.9591 40.9057 11.9006 39.8473 11.9006 38.5307ZM50.4936 70.6443C53.6432 70.6443 56.1988 68.0885 56.1988 64.9392V59.4407H68.0994V64.9392C68.0994 74.6456 60.1999 82.5449 50.4936 82.5449H36.7085V70.6443H50.4936Z" fill="white"/>
</svg>
