<svg width="15" height="12" viewBox="0 0 15 12" fill="none" xmlns="http://www.w3.org/2000/svg">
<path d="M0.666748 2.00149C2.43918 2.00149 4.21161 2.00149 6.00178 2.00149C6.00178 2.05926 6.00178 2.10867 6.00178 2.15774C6.00178 2.70898 6.00387 3.25986 5.9997 3.8111C5.999 3.90123 6.02127 3.94752 6.11034 3.9851C6.96663 4.34702 7.50142 4.9856 7.71576 5.88902C7.73733 5.98054 7.77213 6.00595 7.86224 6.0056C8.46871 6.00177 9.07518 6.00595 9.68165 6.00003C9.7394 5.99933 9.81526 5.96314 9.85179 5.9186C10.3274 5.33256 10.7979 4.7427 11.2672 4.15179C11.2996 4.11108 11.3333 4.05609 11.3333 4.00772C11.3375 3.19757 11.3361 2.38742 11.3361 1.56196C10.7453 1.56196 10.1604 1.56196 9.56682 1.56196C9.56682 1.25816 9.56682 0.969664 9.56682 0.666903C9.61588 0.666903 9.66112 0.666903 9.706 0.666903C10.6736 0.666903 11.6413 0.666555 12.6089 0.666903C13.0724 0.666903 13.4565 0.835335 13.739 1.21048C13.9335 1.46835 14.0042 1.76485 14.0042 2.08327C14.0035 3.69974 14.0028 5.31586 14.0073 6.93233C14.0076 7.00123 14.0414 7.08649 14.0891 7.13591C14.6176 7.68645 14.882 8.34243 14.8925 9.10316C14.8946 9.25037 14.8928 9.39792 14.8928 9.5573C14.5793 9.5573 14.2756 9.5573 13.9763 9.5573C13.62 10.7162 12.8709 11.3558 11.6465 11.3325C10.8674 11.3175 9.89424 10.7788 9.59501 9.56322C9.29404 9.56322 8.99028 9.56322 8.67087 9.56322C8.67087 9.41149 8.67087 9.2709 8.67087 9.12369C8.07379 9.12369 7.49238 9.12369 6.89531 9.12369C6.89531 9.26429 6.89531 9.40523 6.89531 9.55765C6.57659 9.55765 6.27283 9.55765 5.97325 9.55765C5.62044 10.7113 4.87514 11.3481 3.65733 11.3332C2.89533 11.3238 1.89952 10.8028 1.59193 9.56183C1.28574 9.56183 0.976419 9.56183 0.666748 9.56183C0.666748 9.32101 0.666748 9.08019 0.666748 8.83903C0.674403 8.81815 0.686581 8.79762 0.689712 8.77569C0.837241 7.72716 1.39221 6.97965 2.34976 6.53282C2.42596 6.49732 2.44718 6.45591 2.44683 6.37692C2.4437 5.84065 2.44544 5.30437 2.44474 4.7681C2.44474 4.73748 2.43813 4.70686 2.43396 4.66962C1.83967 4.66962 1.25338 4.66962 0.667096 4.66962C0.666748 3.78048 0.666748 2.89098 0.666748 2.00149ZM6.89113 6.89265C6.89113 6.74754 6.89148 6.6226 6.89113 6.49802C6.8873 5.44531 6.11939 4.6738 5.07034 4.66997C4.53833 4.66823 4.00597 4.66962 3.47397 4.66997C3.42978 4.66997 3.38524 4.67414 3.34592 4.67588C3.34592 5.20972 3.34592 5.72963 3.34592 6.25477C3.42177 6.24955 3.48649 6.24711 3.55086 6.24085C4.94925 6.10339 6.17158 6.83071 6.70846 8.12458C6.74325 8.2081 6.78675 8.23002 6.87234 8.22933C7.47846 8.2255 8.08493 8.2255 8.69105 8.22933C8.77873 8.23002 8.81909 8.20462 8.85006 8.12006C9.00107 7.70419 9.24428 7.34749 9.56891 7.04682C9.61728 7.00193 9.66668 6.95808 9.7394 6.89265C8.77212 6.89265 7.83963 6.89265 6.89113 6.89265ZM10.6124 6.39849C11.4614 6.14097 12.2853 6.16429 13.1152 6.48654C13.1152 6.41902 13.1152 6.36926 13.1152 6.31949C13.1152 5.25426 13.1152 4.18938 13.1152 3.12414C13.1152 2.75352 13.1173 2.38325 13.1141 2.01263C13.112 1.78712 12.9781 1.60094 12.7676 1.57171C12.5929 1.54735 12.412 1.56684 12.2262 1.56684C12.2262 1.62565 12.2262 1.67611 12.2262 1.72657C12.2262 2.56943 12.2283 3.41229 12.2227 4.25515C12.2223 4.33032 12.1896 4.41767 12.1437 4.47752C11.9127 4.77854 11.6719 5.07226 11.4349 5.36875C11.1604 5.71223 10.8866 6.05536 10.6124 6.39849ZM5.94994 8.66607C5.78954 8.10022 5.46143 7.67914 4.96386 7.38682C4.56582 7.15261 4.13193 7.10667 3.67995 7.11015C3.16395 7.11398 2.70536 7.26084 2.30592 7.58553C1.95901 7.86775 1.72694 8.22585 1.60898 8.66642C3.06026 8.66607 4.49866 8.66607 5.94994 8.66607ZM9.61032 8.66294C11.0668 8.66294 12.5038 8.66294 13.9509 8.66294C13.8285 8.21854 13.6037 7.84931 13.2449 7.58135C12.4349 6.97687 11.5539 6.95286 10.6639 7.35828C10.1159 7.6078 9.78081 8.07168 9.61032 8.66294ZM1.56201 3.77004C2.75128 3.77004 3.92838 3.77004 5.10583 3.77004C5.10583 3.47458 5.10583 3.18957 5.10583 2.89829C3.92212 2.89829 2.74502 2.89829 1.56201 2.89829C1.56201 3.19096 1.56201 3.47597 1.56201 3.77004ZM2.53939 9.566C2.73389 10.1245 3.29999 10.4945 3.86471 10.4454C4.40785 10.3984 4.93742 9.99057 5.00457 9.566C4.18621 9.566 3.36784 9.566 2.53939 9.566ZM10.5442 9.56531C10.7147 10.0964 11.2679 10.4739 11.8219 10.4485C12.3744 10.4231 12.913 10.0247 13.0108 9.56531C12.1917 9.56531 11.373 9.56531 10.5442 9.56531Z" fill="#232526"/>
</svg>
