<svg width="145" height="108" viewBox="0 0 145 108" fill="none" xmlns="http://www.w3.org/2000/svg">
<path d="M71.0496 106.351C81.1011 106.37 90.9326 103.408 99.2998 97.838C107.667 92.268 114.194 84.3411 118.054 75.0604C121.914 65.7797 122.935 55.5623 120.986 45.7015C119.037 35.8407 114.207 26.7796 107.106 19.6651C100.006 12.5506 90.954 7.70246 81.097 5.73421C71.2401 3.76597 61.0208 4.76608 51.7325 8.60806C42.4442 12.45 34.5044 18.9612 28.918 27.3173C23.3316 35.6735 20.3497 45.4991 20.3497 55.5507C20.3395 62.2163 21.6433 68.8184 24.1864 74.9798C26.7295 81.1412 30.4621 86.741 35.1707 91.4589C39.8793 96.1768 45.4717 99.9204 51.628 102.476C57.7844 105.031 64.384 106.348 71.0496 106.351Z" fill="#F1F3F9" stroke="#D6DCE8" stroke-width="2" stroke-miterlimit="10"/>
<path d="M118.45 22.2496C119.26 22.2496 120.053 22.0091 120.727 21.5586C121.402 21.1081 121.927 20.4677 122.237 19.7185C122.548 18.9694 122.629 18.145 122.471 17.3497C122.313 16.5544 121.922 15.8238 121.349 15.2504C120.775 14.677 120.045 14.2865 119.249 14.1283C118.454 13.9701 117.63 14.0514 116.881 14.3617C116.131 14.672 115.491 15.1975 115.041 15.8717C114.59 16.546 114.35 17.3387 114.35 18.1496C114.35 18.688 114.456 19.2211 114.662 19.7185C114.868 20.216 115.17 20.668 115.55 21.0487C115.931 21.4294 116.383 21.7314 116.881 21.9375C117.378 22.1435 117.911 22.2496 118.45 22.2496Z" fill="#F1F3F9"/>
<path d="M124.45 6.24917C125.004 6.24917 125.546 6.08497 126.006 5.77731C126.466 5.46964 126.825 5.03235 127.037 4.52071C127.249 4.00908 127.305 3.44606 127.197 2.90292C127.089 2.35977 126.822 1.86085 126.43 1.46926C126.039 1.07767 125.54 0.811004 124.997 0.702965C124.453 0.594927 123.89 0.650403 123.379 0.862328C122.867 1.07425 122.43 1.43312 122.122 1.89358C121.815 2.35404 121.65 2.89539 121.65 3.44918C121.65 4.19179 121.945 4.904 122.47 5.4291C122.996 5.9542 123.708 6.24917 124.45 6.24917Z" fill="#F1F3F9"/>
<path d="M23.05 22.1496C23.6038 22.1496 24.1451 21.9854 24.6056 21.6777C25.066 21.37 25.425 20.9327 25.6369 20.421C25.8488 19.9094 25.9042 19.3465 25.7962 18.8033C25.6882 18.2602 25.4215 17.7612 25.0299 17.3697C24.6383 16.9781 24.1394 16.7114 23.5963 16.6034C23.0531 16.4953 22.4901 16.5508 21.9785 16.7627C21.4669 16.9746 21.0296 17.3335 20.7219 17.794C20.4143 18.2544 20.25 18.7958 20.25 19.3496C20.25 20.0922 20.545 20.8043 21.0701 21.3294C21.5952 21.8545 22.3074 22.1496 23.05 22.1496Z" fill="#F1F3F9"/>
<path d="M5.95001 76.1507C6.97848 76.1507 7.98385 75.8458 8.83899 75.2744C9.69413 74.703 10.3606 73.8909 10.7542 72.9407C11.1478 71.9906 11.2508 70.945 11.0501 69.9363C10.8495 68.9276 10.3542 68.001 9.62695 67.2738C8.89972 66.5466 7.97318 66.0513 6.96448 65.8506C5.95578 65.65 4.91026 65.753 3.96008 66.1466C3.00991 66.5402 2.19773 67.2066 1.62634 68.0618C1.05496 68.9169 0.75 69.9223 0.75 70.9507C0.75 71.6336 0.884489 72.3098 1.14581 72.9407C1.40714 73.5716 1.79021 74.1448 2.27307 74.6277C2.75594 75.1105 3.32919 75.4936 3.96008 75.7549C4.59098 76.0163 5.26714 76.1507 5.95001 76.1507Z" fill="#F1F3F9"/>
<path d="M108.549 30.1491L109.349 94.5491C109.345 95.0687 109.239 95.5824 109.035 96.0606C108.832 96.5387 108.535 96.9717 108.163 97.3345C107.791 97.6972 107.351 97.9825 106.868 98.1738C106.385 98.3652 105.868 98.4587 105.349 98.449H42.5488C41.5044 98.4514 40.5008 98.0444 39.753 97.3153C39.0052 96.5862 38.5729 95.5932 38.5488 94.5491V11.749C38.5523 11.2294 38.6589 10.7156 38.8624 10.2375C39.0659 9.75936 39.3623 9.32639 39.7343 8.96363C40.1064 8.60087 40.5467 8.31554 41.0298 8.12422C41.513 7.93289 42.0293 7.8394 42.5488 7.84907H88.0488L108.549 30.1491Z" fill="white" stroke="#D6DCE8" stroke-width="2" stroke-miterlimit="10"/>
<path d="M69.1482 85.5504H66.8482C66.5941 85.4993 66.3655 85.3618 66.2012 85.1613C66.037 84.9607 65.9473 84.7095 65.9473 84.4503C65.9473 84.1911 66.037 83.9399 66.2012 83.7394C66.3655 83.5389 66.5941 83.4014 66.8482 83.3503H69.1482C69.412 83.3801 69.6538 83.5118 69.8219 83.7173C69.99 83.9228 70.0712 84.1858 70.0482 84.4503C70.0482 85.1503 69.6482 85.5504 69.1482 85.5504Z" fill="#D6DCE8"/>
<path d="M62.1505 85.5504H48.7505C48.4964 85.4993 48.2678 85.3618 48.1036 85.1613C47.9393 84.9607 47.8496 84.7095 47.8496 84.4503C47.8496 84.1911 47.9393 83.9399 48.1036 83.7394C48.2678 83.5389 48.4964 83.4014 48.7505 83.3503H62.1505C62.4144 83.3801 62.6561 83.5118 62.8242 83.7173C62.9924 83.9228 63.0735 84.1858 63.0505 84.4503C63.0505 85.1503 62.6505 85.5504 62.1505 85.5504Z" fill="#D6DCE8"/>
<path d="M79.2496 21.3508H49.1496C48.8048 21.3508 48.4741 21.2138 48.2303 20.97C47.9865 20.7262 47.8496 20.3956 47.8496 20.0508C47.8496 19.706 47.9865 19.3753 48.2303 19.1315C48.4741 18.8877 48.8048 18.7507 49.1496 18.7507H79.2496C79.5944 18.7507 79.925 18.8877 80.1688 19.1315C80.4126 19.3753 80.5496 19.706 80.5496 20.0508C80.5496 20.3956 80.4126 20.7262 80.1688 20.97C79.925 21.2138 79.5944 21.3508 79.2496 21.3508Z" fill="#D6DCE8"/>
<path d="M60.7496 28.55H49.1496C48.8048 28.55 48.4741 28.413 48.2303 28.1692C47.9865 27.9254 47.8496 27.5947 47.8496 27.2499C47.8496 26.9052 47.9865 26.5745 48.2303 26.3307C48.4741 26.087 48.8048 25.95 49.1496 25.95H60.6496C60.9925 25.9561 61.3195 26.095 61.562 26.3375C61.8045 26.58 61.9434 26.9071 61.9496 27.2499C61.9485 27.5775 61.8246 27.8927 61.6025 28.1334C61.3803 28.374 61.076 28.5227 60.7496 28.55Z" fill="#D6DCE8"/>
<path d="M88.5625 7.85034V25.6503C88.6029 26.8657 89.1173 28.0169 89.9957 28.8579C90.874 29.6989 92.0466 30.1628 93.2625 30.1503H109.062" fill="#D6DCE8"/>
<path d="M113.349 99.9503C112.816 99.9487 112.29 99.8317 111.806 99.6073C111.323 99.3829 110.894 99.0564 110.549 98.6503L93.8489 81.9503L93.2488 82.3503C88.029 86.2783 81.6814 88.4176 75.1488 88.4503C67.2934 88.3887 59.7533 85.3513 54.0488 79.9503C51.0852 77.1497 48.73 73.7687 47.13 70.0182C45.53 66.2676 44.7195 62.2278 44.7488 58.1503C44.7605 50.1178 47.9565 42.4177 53.6363 36.7379C59.3162 31.058 67.0163 27.862 75.0488 27.8503C80.5811 27.8574 86.006 29.3773 90.7367 32.2456C95.4673 35.1139 99.3234 39.2213 101.888 44.1234C104.452 49.0254 105.627 54.5354 105.285 60.0571C104.943 65.5788 103.098 70.9019 99.9488 75.4503L99.5488 76.0504L116.349 92.8503C116.933 93.3801 117.342 94.0756 117.521 94.844C117.7 95.6124 117.64 96.417 117.349 97.1503C116.992 97.9312 116.433 98.6025 115.73 99.0948C115.027 99.5871 114.205 99.8825 113.349 99.9503ZM75.0488 36.1503C69.214 36.1503 63.6183 38.4682 59.4925 42.594C55.3667 46.7198 53.0488 52.3156 53.0488 58.1503C53.0488 71.9503 64.3489 80.2503 75.3489 80.2503C79.0598 80.2175 82.7022 79.2465 85.937 77.4276C89.1718 75.6086 91.8939 73.001 93.85 69.8473C95.8061 66.6936 96.9327 63.0962 97.1248 59.3901C97.3169 55.6839 96.5684 51.9894 94.9488 48.6503C93.1431 44.9061 90.3181 41.7471 86.798 39.536C83.278 37.3249 79.2057 36.1515 75.0488 36.1503Z" fill="#F1F3F9" stroke="#D6DCE8" stroke-width="2" stroke-miterlimit="10"/>
<path d="M65.5504 61.7499C66.025 61.7499 66.4891 61.6092 66.8837 61.3454C67.2784 61.0817 67.5861 60.7069 67.7677 60.2684C67.9494 59.8298 67.9968 59.3473 67.9042 58.8817C67.8116 58.4161 67.5831 57.9885 67.2474 57.6529C66.9118 57.3172 66.4842 57.0887 66.0186 56.9961C65.5531 56.9035 65.0705 56.951 64.632 57.1326C64.1934 57.3143 63.8186 57.6219 63.5549 58.0166C63.2912 58.4113 63.1504 58.8753 63.1504 59.35C63.1589 59.9838 63.4145 60.5893 63.8628 61.0376C64.311 61.4858 64.9165 61.7414 65.5504 61.7499Z" fill="#AAB2C5"/>
<path d="M83.9491 61.7499C84.4237 61.7499 84.8878 61.6092 85.2824 61.3454C85.6771 61.0817 85.9847 60.7069 86.1663 60.2684C86.348 59.8298 86.3955 59.3473 86.3029 58.8817C86.2103 58.4161 85.9818 57.9885 85.6461 57.6529C85.3105 57.3172 84.8828 57.0887 84.4173 56.9961C83.9517 56.9035 83.4691 56.951 83.0306 57.1326C82.5921 57.3143 82.2172 57.6219 81.9535 58.0166C81.6898 58.4113 81.549 58.8753 81.549 59.35C81.5449 59.6663 81.6042 59.9802 81.7233 60.2733C81.8424 60.5664 82.019 60.8326 82.2427 61.0563C82.4664 61.28 82.7327 61.4566 83.0257 61.5757C83.3188 61.6949 83.6327 61.7541 83.9491 61.7499Z" fill="#AAB2C5"/>
<path d="M65.4578 51.4089L60.1777 54.2589L60.8907 55.5789L66.1697 52.7289L65.4578 51.4089Z" fill="#AAB2C5"/>
<path d="M83.6241 51.3718L82.9121 52.6918L88.1921 55.5418L88.9041 54.2219L83.6241 51.3718Z" fill="#AAB2C5"/>
<path d="M74.7492 67.3492C76.2962 67.3492 77.5492 66.4091 77.5492 65.2491C77.5492 64.0891 76.2962 63.1492 74.7492 63.1492C73.2022 63.1492 71.9492 64.0891 71.9492 65.2491C71.9492 66.4091 73.2032 67.3492 74.7492 67.3492Z" fill="#AAB2C5"/>
</svg>
