<svg width="127" height="108" viewBox="0 0 127 108" fill="none" xmlns="http://www.w3.org/2000/svg">
<path d="M70.5496 106.351C80.6011 106.37 90.4326 103.408 98.7998 97.838C107.167 92.268 113.694 84.3411 117.554 75.0604C121.414 65.7797 122.435 55.5623 120.486 45.7015C118.537 35.8407 113.707 26.7796 106.606 19.6651C99.5055 12.5506 90.454 7.70246 80.597 5.73421C70.7401 3.76597 60.5208 4.76608 51.2325 8.60806C41.9442 12.45 34.0044 18.9612 28.418 27.3173C22.8316 35.6735 19.8497 45.4991 19.8497 55.5507C19.8395 62.2163 21.1433 68.8184 23.6864 74.9798C26.2295 81.1412 29.9621 86.741 34.6707 91.4589C39.3793 96.1768 44.9717 99.9204 51.128 102.476C57.2844 105.031 63.884 106.348 70.5496 106.351Z" fill="#F1F3F9" stroke="#D6DCE8" stroke-width="2" stroke-miterlimit="10"/>
<path d="M117.95 22.2496C118.76 22.2496 119.553 22.0091 120.227 21.5586C120.902 21.1081 121.427 20.4677 121.737 19.7185C122.048 18.9694 122.129 18.145 121.971 17.3497C121.813 16.5544 121.422 15.8238 120.849 15.2504C120.275 14.677 119.545 14.2865 118.749 14.1283C117.954 13.9701 117.13 14.0514 116.381 14.3617C115.631 14.672 114.991 15.1975 114.541 15.8717C114.09 16.546 113.85 17.3387 113.85 18.1496C113.85 18.688 113.956 19.2211 114.162 19.7185C114.368 20.216 114.67 20.668 115.05 21.0487C115.431 21.4294 115.883 21.7314 116.381 21.9375C116.878 22.1435 117.411 22.2496 117.95 22.2496Z" fill="#F1F3F9"/>
<path d="M123.95 6.24917C124.504 6.24917 125.046 6.08497 125.506 5.77731C125.966 5.46964 126.325 5.03235 126.537 4.52071C126.749 4.00908 126.805 3.44606 126.697 2.90292C126.589 2.35977 126.322 1.86085 125.93 1.46926C125.539 1.07767 125.04 0.811004 124.497 0.702965C123.953 0.594927 123.39 0.650403 122.879 0.862328C122.367 1.07425 121.93 1.43312 121.622 1.89358C121.315 2.35404 121.15 2.89539 121.15 3.44918C121.15 4.19179 121.445 4.904 121.97 5.4291C122.496 5.9542 123.208 6.24917 123.95 6.24917Z" fill="#F1F3F9"/>
<path d="M22.55 22.1496C23.1038 22.1496 23.6451 21.9854 24.1056 21.6777C24.566 21.37 24.925 20.9327 25.1369 20.421C25.3488 19.9094 25.4042 19.3465 25.2962 18.8033C25.1882 18.2602 24.9215 17.7612 24.5299 17.3697C24.1383 16.9781 23.6394 16.7114 23.0963 16.6034C22.5531 16.4953 21.9901 16.5508 21.4785 16.7627C20.9669 16.9746 20.5296 17.3335 20.2219 17.794C19.9143 18.2544 19.75 18.7958 19.75 19.3496C19.75 20.0922 20.045 20.8043 20.5701 21.3294C21.0952 21.8545 21.8074 22.1496 22.55 22.1496Z" fill="#F1F3F9"/>
<path d="M5.45001 76.1507C6.47848 76.1507 7.48385 75.8458 8.33899 75.2744C9.19413 74.703 9.86064 73.8909 10.2542 72.9407C10.6478 71.9906 10.7508 70.945 10.5501 69.9363C10.3495 68.9276 9.85419 68.001 9.12695 67.2738C8.39972 66.5466 7.47318 66.0513 6.46448 65.8506C5.45578 65.65 4.41026 65.753 3.46008 66.1466C2.50991 66.5402 1.69773 67.2066 1.12634 68.0618C0.554959 68.9169 0.25 69.9223 0.25 70.9507C0.25 71.6336 0.384489 72.3098 0.645813 72.9407C0.907137 73.5716 1.29021 74.1448 1.77307 74.6277C2.25594 75.1105 2.82919 75.4936 3.46008 75.7549C4.09098 76.0163 4.76714 76.1507 5.45001 76.1507Z" fill="#F1F3F9"/>
<path d="M108.049 30.1491L108.849 94.5491C108.845 95.0687 108.739 95.5824 108.535 96.0606C108.332 96.5387 108.035 96.9717 107.663 97.3345C107.291 97.6972 106.851 97.9825 106.368 98.1738C105.885 98.3652 105.368 98.4587 104.849 98.449H42.0488C41.0044 98.4514 40.0008 98.0444 39.253 97.3153C38.5052 96.5862 38.0729 95.5932 38.0488 94.5491V11.749C38.0523 11.2294 38.1589 10.7156 38.3624 10.2375C38.5659 9.75936 38.8623 9.32639 39.2343 8.96363C39.6064 8.60087 40.0467 8.31554 40.5298 8.12422C41.013 7.93289 41.5293 7.8394 42.0488 7.84907H87.5488L108.049 30.1491Z" fill="white" stroke="#D6DCE8" stroke-width="2" stroke-miterlimit="10"/>
<path d="M68.6482 85.5504H66.3482C66.0941 85.4993 65.8655 85.3618 65.7012 85.1613C65.537 84.9607 65.4473 84.7095 65.4473 84.4503C65.4473 84.1911 65.537 83.9399 65.7012 83.7394C65.8655 83.5389 66.0941 83.4014 66.3482 83.3503H68.6482C68.912 83.3801 69.1538 83.5118 69.3219 83.7173C69.49 83.9228 69.5712 84.1858 69.5482 84.4503C69.5482 85.1503 69.1482 85.5504 68.6482 85.5504Z" fill="#D6DCE8"/>
<path d="M61.6505 85.5504H48.2505C47.9964 85.4993 47.7678 85.3618 47.6036 85.1613C47.4393 84.9607 47.3496 84.7095 47.3496 84.4503C47.3496 84.1911 47.4393 83.9399 47.6036 83.7394C47.7678 83.5389 47.9964 83.4014 48.2505 83.3503H61.6505C61.9144 83.3801 62.1561 83.5118 62.3242 83.7173C62.4924 83.9228 62.5735 84.1858 62.5505 84.4503C62.5505 85.1503 62.1505 85.5504 61.6505 85.5504Z" fill="#D6DCE8"/>
<path d="M78.7496 21.3508H48.6496C48.3048 21.3508 47.9741 21.2138 47.7303 20.97C47.4865 20.7262 47.3496 20.3956 47.3496 20.0508C47.3496 19.706 47.4865 19.3753 47.7303 19.1315C47.9741 18.8877 48.3048 18.7507 48.6496 18.7507H78.7496C79.0944 18.7507 79.425 18.8877 79.6688 19.1315C79.9126 19.3753 80.0496 19.706 80.0496 20.0508C80.0496 20.3956 79.9126 20.7262 79.6688 20.97C79.425 21.2138 79.0944 21.3508 78.7496 21.3508Z" fill="#D6DCE8"/>
<path d="M60.2496 28.55H48.6496C48.3048 28.55 47.9741 28.413 47.7303 28.1692C47.4865 27.9254 47.3496 27.5947 47.3496 27.2499C47.3496 26.9052 47.4865 26.5745 47.7303 26.3307C47.9741 26.087 48.3048 25.95 48.6496 25.95H60.1496C60.4925 25.9561 60.8195 26.095 61.062 26.3375C61.3045 26.58 61.4434 26.9071 61.4496 27.2499C61.4485 27.5775 61.3246 27.8927 61.1025 28.1334C60.8803 28.374 60.576 28.5227 60.2496 28.55Z" fill="#D6DCE8"/>
<path d="M88.0625 7.85034V25.6503C88.1029 26.8657 88.6173 28.0169 89.4957 28.8579C90.374 29.6989 91.5466 30.1628 92.7625 30.1503H108.562" fill="#D6DCE8"/>
<path d="M112.849 99.9503C112.316 99.9487 111.79 99.8317 111.306 99.6073C110.823 99.3829 110.394 99.0564 110.049 98.6503L93.3489 81.9503L92.7488 82.3503C87.529 86.2783 81.1814 88.4176 74.6488 88.4503C66.7934 88.3887 59.2533 85.3513 53.5488 79.9503C50.5852 77.1497 48.23 73.7687 46.63 70.0182C45.03 66.2676 44.2195 62.2278 44.2488 58.1503C44.2605 50.1178 47.4565 42.4177 53.1363 36.7379C58.8162 31.058 66.5163 27.862 74.5488 27.8503C80.0811 27.8574 85.506 29.3773 90.2367 32.2456C94.9673 35.1139 98.8234 39.2213 101.388 44.1234C103.952 49.0254 105.127 54.5354 104.785 60.0571C104.443 65.5788 102.598 70.9019 99.4488 75.4503L99.0488 76.0504L115.849 92.8503C116.433 93.3801 116.842 94.0756 117.021 94.844C117.2 95.6124 117.14 96.417 116.849 97.1503C116.492 97.9312 115.933 98.6025 115.23 99.0948C114.527 99.5871 113.705 99.8825 112.849 99.9503ZM74.5488 36.1503C68.714 36.1503 63.1183 38.4682 58.9925 42.594C54.8667 46.7198 52.5488 52.3156 52.5488 58.1503C52.5488 71.9503 63.8489 80.2503 74.8489 80.2503C78.5598 80.2175 82.2022 79.2465 85.437 77.4276C88.6718 75.6086 91.3939 73.001 93.35 69.8473C95.3061 66.6936 96.4327 63.0962 96.6248 59.3901C96.8169 55.6839 96.0684 51.9894 94.4488 48.6503C92.6431 44.9061 89.8181 41.7471 86.298 39.536C82.778 37.3249 78.7057 36.1515 74.5488 36.1503Z" fill="#F1F3F9" stroke="#D6DCE8" stroke-width="2" stroke-miterlimit="10"/>
<path d="M65.0504 61.7499C65.525 61.7499 65.9891 61.6092 66.3837 61.3454C66.7784 61.0817 67.0861 60.7069 67.2677 60.2684C67.4494 59.8298 67.4968 59.3473 67.4042 58.8817C67.3116 58.4161 67.0831 57.9885 66.7474 57.6529C66.4118 57.3172 65.9842 57.0887 65.5186 56.9961C65.0531 56.9035 64.5705 56.951 64.132 57.1326C63.6934 57.3143 63.3186 57.6219 63.0549 58.0166C62.7912 58.4113 62.6504 58.8753 62.6504 59.35C62.6589 59.9838 62.9145 60.5893 63.3628 61.0376C63.811 61.4858 64.4165 61.7414 65.0504 61.7499Z" fill="#AAB2C5"/>
<path d="M83.4491 61.7499C83.9237 61.7499 84.3878 61.6092 84.7824 61.3454C85.1771 61.0817 85.4847 60.7069 85.6663 60.2684C85.848 59.8298 85.8955 59.3473 85.8029 58.8817C85.7103 58.4161 85.4818 57.9885 85.1461 57.6529C84.8105 57.3172 84.3828 57.0887 83.9173 56.9961C83.4517 56.9035 82.9691 56.951 82.5306 57.1326C82.0921 57.3143 81.7172 57.6219 81.4535 58.0166C81.1898 58.4113 81.049 58.8753 81.049 59.35C81.0449 59.6663 81.1042 59.9802 81.2233 60.2733C81.3424 60.5664 81.519 60.8326 81.7427 61.0563C81.9664 61.28 82.2327 61.4566 82.5257 61.5757C82.8188 61.6949 83.1327 61.7541 83.4491 61.7499Z" fill="#AAB2C5"/>
<path d="M64.9578 51.4089L59.6777 54.2589L60.3907 55.5789L65.6697 52.7289L64.9578 51.4089Z" fill="#AAB2C5"/>
<path d="M83.1241 51.3718L82.4121 52.6918L87.6921 55.5418L88.4041 54.2219L83.1241 51.3718Z" fill="#AAB2C5"/>
<path d="M74.2492 67.3492C75.7962 67.3492 77.0492 66.4091 77.0492 65.2491C77.0492 64.0891 75.7962 63.1492 74.2492 63.1492C72.7022 63.1492 71.4492 64.0891 71.4492 65.2491C71.4492 66.4091 72.7032 67.3492 74.2492 67.3492Z" fill="#AAB2C5"/>
</svg>
