<svg width="82" height="66" viewBox="0 0 82 66" fill="none" xmlns="http://www.w3.org/2000/svg">
<path d="M28.6504 17.4699V11.7857C28.6504 10.435 28.9164 9.09737 29.4334 7.84945C29.9503 6.60152 30.7079 5.46769 31.663 4.51257C32.6181 3.55745 33.752 2.79983 34.9999 2.28292C36.2479 1.76602 37.5854 1.5 38.9361 1.5C40.2869 1.5 41.6244 1.76602 42.8723 2.28292C44.1202 2.79983 45.2541 3.55745 46.2092 4.51257C47.1644 5.46769 47.922 6.60152 48.4389 7.84945C48.9558 9.09737 49.2218 10.435 49.2218 11.7857V17.4699" stroke="#D6DCE8" stroke-width="1.894" stroke-miterlimit="10" stroke-linecap="round" stroke-linejoin="round"/>
<path d="M63.8384 59.6956C64.1091 59.5602 64.1767 59.4249 64.4474 59.3572" stroke="#FF78B7" stroke-width="0.612" stroke-linecap="round" stroke-linejoin="round"/>
<path d="M8.01123 64.4998H80.6204" stroke="#D6DCE8" stroke-width="2" stroke-miterlimit="10" stroke-linecap="round" stroke-linejoin="round"/>
<path d="M1.37988 64.4998H4.35733" stroke="#D6DCE8" stroke-width="2" stroke-miterlimit="10" stroke-linecap="round" stroke-linejoin="round"/>
<path d="M68.9819 6.71001H11.3276V64.4995H68.9819V6.71001Z" fill="#F1F3F9" stroke="#D6DCE8" stroke-width="2" stroke-miterlimit="10"/>
<path d="M69.1162 6.71001H27.3643V64.4995H69.0485V6.71001H69.1162Z" fill="white" stroke="#D6DCE8" stroke-width="2" stroke-miterlimit="10"/>
<path d="M19.3126 6.71001H11.3276V64.4995H19.3126V6.71001Z" fill="#F1F3F9" stroke="#D6DCE8" stroke-width="2" stroke-miterlimit="10"/>
<path d="M27.3653 64.5H11.3276V64.3647L19.448 56.3121L27.3653 64.5Z" fill="#F1F3F9" stroke="#D6DCE8" stroke-width="2" stroke-miterlimit="10"/>
<path d="M37.4478 19.5677C37.8627 19.5677 38.2683 19.4446 38.6133 19.2141C38.9583 18.9836 39.2272 18.6559 39.3859 18.2726C39.5447 17.8893 39.5862 17.4676 39.5053 17.0606C39.4243 16.6537 39.2246 16.28 38.9312 15.9866C38.6378 15.6932 38.264 15.4935 37.8571 15.4125C37.4502 15.3316 37.0284 15.373 36.6451 15.5318C36.2618 15.6906 35.9341 15.9595 35.7036 16.3045C35.4731 16.6495 35.3501 17.055 35.3501 17.4699C35.3529 18.0253 35.5749 18.5573 35.9677 18.9501C36.3605 19.3429 36.8924 19.5648 37.4478 19.5677Z" fill="#D6DCE8"/>
<path d="M58.0186 19.5677C58.4335 19.5677 58.8391 19.4446 59.1841 19.2141C59.5291 18.9836 59.7979 18.6559 59.9567 18.2726C60.1155 17.8893 60.157 17.4676 60.0761 17.0606C59.9951 16.6537 59.7953 16.28 59.502 15.9866C59.2086 15.6932 58.8348 15.4935 58.4279 15.4125C58.021 15.3316 57.5992 15.373 57.2159 15.5318C56.8325 15.6906 56.5049 15.9595 56.2744 16.3045C56.0439 16.6495 55.9209 17.055 55.9209 17.4699C55.9351 18.0217 56.1607 18.5472 56.551 18.9376C56.9414 19.3279 57.4668 19.5535 58.0186 19.5677Z" fill="#D6DCE8"/>
<path d="M37.4473 17.4699V11.7857C37.4473 10.435 37.7133 9.09737 38.2302 7.84945C38.7471 6.60152 39.5048 5.46769 40.4599 4.51257C41.415 3.55745 42.5489 2.79983 43.7968 2.28292C45.0447 1.76602 46.3823 1.5 47.733 1.5C49.0837 1.5 50.4212 1.76602 51.6692 2.28292C52.9171 2.79983 54.051 3.55745 55.0061 4.51257C55.9612 5.46769 56.7189 6.60152 57.2358 7.84945C57.7527 9.09737 58.0187 10.435 58.0187 11.7857V17.4699" stroke="#D6DCE8" stroke-width="1.894" stroke-miterlimit="10" stroke-linecap="round" stroke-linejoin="round"/>
</svg>
