<svg width="80" height="83" viewBox="0 0 80 83" fill="none" xmlns="http://www.w3.org/2000/svg">
<path fill-rule="evenodd" clip-rule="evenodd" d="M62.3945 0.580527H50.8553V12.4811H62.3945C65.5438 12.4811 68.0994 15.0367 68.0994 18.1862V18.4185H57.5671C49.6935 18.4185 43.2914 24.8207 43.2914 32.6941V38.5283C43.2914 46.4018 49.6935 52.8038 57.5671 52.8038H80V18.1604C80 8.45401 72.1008 0.554688 62.3945 0.554688V0.580527ZM68.0994 40.9291H57.5671C56.2505 40.9291 55.192 39.8706 55.192 38.554V32.72C55.192 31.4034 56.2505 30.3449 57.5671 30.3449H68.0994V40.9291ZM36.7085 46.8664V12.4811H43.3173V0.580527H24.808V18.4443H14.2757C6.40202 18.4443 0 24.8465 0 32.72V38.5541C0 46.4276 6.40202 52.8296 14.2757 52.8296H36.7085V46.8664ZM11.9006 38.5283V32.6941C11.9006 31.3776 12.9591 30.3192 14.2757 30.3192H24.808V40.9032H14.2757C12.9591 40.9032 11.9006 39.8449 11.9006 38.5283ZM50.4936 70.6419C53.6432 70.6419 56.1988 68.0861 56.1988 64.9368V59.4382H68.0994V64.9368C68.0994 74.6432 60.1999 82.5425 50.4936 82.5425H36.7085V70.6419H50.4936Z" fill="white"/>
</svg>
