<svg width="40" height="40" viewBox="0 0 40 40" fill="none" xmlns="http://www.w3.org/2000/svg">
<g clip-path="url(#clip0_157_20165)">
<path d="M19.9998 0C12.9411 0 7.21973 5.7214 7.21973 12.7801C7.21973 15.824 8.29004 18.615 10.0685 20.8089C10.6418 21.515 11.6008 22.6268 12.1007 23.387C14.9792 27.76 18.6721 34.111 19.7482 39.323C19.9329 40.213 20.1554 40.2285 20.395 39.3519C21.1626 36.5415 23.1534 30.4011 27.2646 23.9759C27.7548 23.2097 28.7488 22.1374 29.3658 21.4697C30.2595 20.5018 31.0034 19.3937 31.5686 18.1855C32.3392 16.5375 32.7798 14.7129 32.7798 12.7816C32.7798 5.72208 27.0584 0 19.9998 0ZM19.9998 19.6851C16.06 19.6851 12.8663 16.4914 12.8663 12.5516C12.8663 8.61243 16.06 5.41881 19.9998 5.41881C23.9396 5.41881 27.1334 8.61257 27.1334 12.5516C27.1334 16.4915 23.9396 19.6851 19.9998 19.6851Z" fill="#7D00FF"/>
<path d="M19.9999 15.2655C21.6384 15.2655 22.9666 13.9372 22.9666 12.2988C22.9666 10.6603 21.6384 9.33203 19.9999 9.33203C18.3614 9.33203 17.0332 10.6603 17.0332 12.2988C17.0332 13.9372 18.3614 15.2655 19.9999 15.2655Z" fill="#7D00FF"/>
</g>
<defs>
<clipPath id="clip0_157_20165">
<rect width="40" height="40" fill="white"/>
</clipPath>
</defs>
</svg>
